<?xml version="1.0" encoding="utf-8"?>
<!-- Generator: Adobe Illustrator 24.0.1, SVG Export Plug-In . SVG Version: 6.00 Build 0)  -->
<svg version="1.1" id="Слой_1" xmlns="http://www.w3.org/2000/svg" xmlns:xlink="http://www.w3.org/1999/xlink" x="0px" y="0px"
	 viewBox="0 0 307.5 301.5" style="enable-background:new 0 0 307.5 301.5;" xml:space="preserve">
<style type="text/css">
	.st0{display:none;fill:#1E1E1E;}
	.st1{fill:#276BFB;}
</style>
<rect x="-639.8" y="-551.7" class="st0" width="1794.9" height="1605.9"/>
<g>
	<g>
		<path class="st1" d="M111.9,290.2c-49.4,0-89.5-40.1-89.5-89.5c0-49.4,40.1-89.5,89.5-89.5c0,0-44.7,40.1-44.7,89.5
			S111.9,290.2,111.9,290.2z"/>
	</g>
	<g>
		<path class="st1" d="M253.6,256.8c-24.7,42.8-79.4,57.5-122.2,32.7c-42.8-24.7-57.5-79.4-32.7-122.2c0,0,12.3,58.8,55.1,83.5
			S253.6,256.8,253.6,256.8z"/>
	</g>
	<g>
		<path class="st1" d="M295.5,117.3c24.7,42.8,10,97.5-32.8,122.2c-42.8,24.7-97.5,10-122.2-32.8c0,0,57.1,18.7,99.9-6
			S295.5,117.3,295.5,117.3z"/>
	</g>
	<g>
		<path class="st1" d="M195.6,11.3c49.4,0,89.5,40.1,89.5,89.5c0,49.4-40.1,89.5-89.5,89.5c0,0,44.7-40.1,44.7-89.5
			S195.6,11.3,195.6,11.3z"/>
	</g>
	<g>
		<path class="st1" d="M53.9,44.8C78.6,2,133.3-12.7,176.1,12s57.5,79.4,32.7,122.2c0,0-12.3-58.8-55.1-83.5S53.9,44.8,53.9,44.8z"
			/>
	</g>
	<g>
		<path class="st1" d="M12,184.2C-12.7,141.4,2,86.7,44.8,62S142.3,52,167,94.8c0,0-57.1-18.7-99.9,6S12,184.2,12,184.2z"/>
	</g>
	<g>
		<path class="st1" d="M111.9,290.2c-49.4,0-89.5-40.1-89.5-89.5c0-49.4,40.1-89.5,89.5-89.5c0,0-44.7,40.1-44.7,89.5
			S111.9,290.2,111.9,290.2z"/>
	</g>
</g>
<image style="display:none;overflow:visible;" width="239" height="65" xlink:href="../Documents/GitHub/ignisdayz.github.io/images/logo.png"  transform="matrix(1 0 0 1 -20.8818 24.7574)">
</image>
</svg>
